<?xml version="1.0" encoding="utf-8"?>
<!-- Generator: Adobe Illustrator 24.2.3, SVG Export Plug-In . SVG Version: 6.00 Build 0)  -->
<svg version="1.1" id="Layer_1" xmlns="http://www.w3.org/2000/svg" xmlns:xlink="http://www.w3.org/1999/xlink" x="0px" y="0px"
	 viewBox="0 0 1279.9 104.4" style="enable-background:new 0 0 1279.9 104.4;" xml:space="preserve">
<g transform="translate(0.000000,640.000000) scale(0.100000,-0.100000)">
	<path d="M6352.4,6379.4c-93-66-129-208-84-334c20-59,67-128,109-159l24-19l53,56c129,139,124,364-11,456
		C6404.4,6407.4,6390.4,6406.4,6352.4,6379.4z M6442.4,6360.4c14-11,38-42,54-67c24-41,27-57,27-132c0-72-4-93-27-140
		c-15-30-43-71-63-90l-35-34l-35,34c-20,19-48,60-63,90c-23,47-27,68-27,140c0,75,3,91,27,132c31,51,71,88,98,88
		C6408.4,6381.4,6427.4,6372.4,6442.4,6360.4z"/>
	<path d="M4937.4,6092.4c-113-22-229-116-282-229c-30-62-32-75-32-172c0-92,3-112,26-160c36-77,71-115,137-147c49-24,69-28,142-28
		c107,0,164,21,218,79c67,73,79,158,36,245c-36,71-86,104-168,109c-49,3-70-1-106-20c-53-27-84-74-74-113l7-26l28,34
		c36,44,108,63,172,46c110-30,152-177,74-265c-49-57-100-78-188-78c-67-1-81,3-125,29c-91,57-141,181-132,327
		c14,208,205,360,411,327c127-21,230-71,426-208c207-145,349-220,531-279c269-88,452-88,720,0c183,60,325,135,531,279
		c196,137,299,187,426,208c206,33,397-119,411-327c9-146-41-270-132-327c-44-26-58-30-125-29c-88,0-139,21-188,78
		c-78,88-36,235,74,265c64,17,136-2,172-46l28-34l7,26c10,39-21,86-74,113c-36,19-57,23-106,20c-82-5-132-38-168-109
		c-43-87-31-172,36-245c54-58,111-79,218-79c140,0,221,51,279,175c23,48,26,68,26,160c0,97-2,110-32,172c-40,86-110,156-194,196
		c-176,84-376,33-646-165c-277-203-488-305-738-358c-202-42-425-2-690,124c-135,65-208,110-378,234
		C5269.4,6059.4,5092.4,6122.4,4937.4,6092.4z"/>
	<path d="M5799.4,6050.4c-24-5-45-10-47-12s20-20,50-41c63-43,125-108,214-223c107-138,219-196,382-196c170,0,272,56,399,217
		c86,110,143,167,211,212c41,27,41,28,18,37c-40,15-181,20-242,8c-78-14-124-38-221-112c-44-33-99-70-122-82l-43-21l-42,21
		c-24,12-79,49-123,82c-44,34-98,70-120,81C6036.4,6058.4,5903.4,6071.4,5799.4,6050.4z M5961.4,6041.4c87-14,152-49,251-134
		c49-43,111-88,137-102l49-24l49,24c26,14,88,59,137,102c99,85,164,120,251,135c52,8,156,4,176-8c5-3-15-21-45-41
		c-29-19-109-93-178-163c-69-69-143-136-165-147c-143-72-307-72-450,0c-22,11-96,78-165,147c-69,70-149,144-179,164
		c-56,37-56,42,4,50C5888.4,6051.4,5903.4,6051.4,5961.4,6041.4z"/>
	<path d="M4442.4,5751.4c-49-20-66-77-39-129c29-56,125-58,154-3C4599.4,5698.4,4524.4,5784.4,4442.4,5751.4z M4508.4,5703.4
		c18-14,21-25,16-45c-8-35-49-46-76-22c-25,23-25,40,0,65S4480.4,5726.4,4508.4,5703.4z"/>
	<path d="M8260.4,5736.4c-54-45-42-124,23-151c62-26,125,20,125,90c0,36-39,76-81,82C8299.4,5762.4,8286.4,5758.4,8260.4,5736.4z
		 M8348.4,5701.4c25-25,25-42,0-65c-27-24-68-13-76,22c-5,20-2,31,16,45C8316.4,5726.4,8323.4,5726.4,8348.4,5701.4z"/>
	<path d="M14.4,5698.4c-24-18-17-48,14-64c20-10,453-12,2148-10c2089,2,2124,2,2138,21c18,25,18,31-2,50c-14,14-223,16-2148,16
		C417.4,5711.4,29.4,5709.4,14.4,5698.4z"/>
	<path d="M8484.4,5695.4c-20-19-20-25-2-50c14-19,49-19,2138-21c2246-3,2168-4,2176,42c10,47,103,45-2164,45
		C8707.4,5711.4,8498.4,5709.4,8484.4,5695.4z"/>
	<path d="M5490.4,5629.4c-52-19-142-93-142-116c0-6,11-24,24-39c23-27,28-28,113-27c75,0,107,7,218,42c72,23,155,45,185,48
		c88,10,91,18,19,52C5770.4,5654.4,5597.4,5671.4,5490.4,5629.4z M5858.4,5586.4l55-18l-80-12c-44-7-127-24-185-40
		c-111-28-213-36-232-17c-22,22,39,69,127,99C5598.4,5616.4,5786.4,5609.4,5858.4,5586.4z"/>
	<path d="M7002.4,5632.4c-34-10-88-30-119-46c-65-31-61-39,25-49c30-3,114-25,185-48c111-35,143-42,218-42c85-1,90,0,113,27
		c13,15,24,33,24,39c0,24-90,97-144,117C7232.4,5657.4,7092.4,5658.4,7002.4,5632.4z M7295.4,5582.4c62-28,102-66,85-83
		c-20-20-122-11-248,21c-66,17-149,34-183,37c-43,5-58,10-48,16C6978.4,5616.4,7206.4,5621.4,7295.4,5582.4z"/>
</g>
</svg>
